<?xml version="1.0" encoding="UTF-8"?>
<!DOCTYPE svg PUBLIC "-//W3C//DTD SVG 1.1//EN" "http://www.w3.org/Graphics/SVG/1.1/DTD/svg11.dtd">
<svg xmlns="http://www.w3.org/2000/svg" xmlns:xlink="http://www.w3.org/1999/xlink" version="1.1" width="107px" height="83px" viewBox="-0.5 -0.5 107 83"><defs><style type="text/css">@import url(https://fonts.googleapis.com/css?family=Architects+Daughter);&#xa;</style></defs><g><rect x="4" y="4" width="99" height="75" fill="none" stroke="none" pointer-events="all"/><path d="M 102.99 79 L 4 79 L 4 4 L 103 4 L 103 79 L 102.99 79 Z M 15.71 72.06 L 91.29 72.06 L 66.42 46.49 L 61.71 51.26 C 59.68 53.3 56.76 54.48 53.69 54.48 C 53.67 54.48 53.66 54.48 53.64 54.48 C 50.57 54.47 47.64 53.26 45.62 51.2 L 40.83 46.32 L 15.71 72.06 L 15.71 72.06 Z M 10.9 15.9 L 10.9 67.08 L 35.96 41.38 L 10.9 15.9 L 10.9 15.9 Z M 71.28 41.57 L 96.09 67.08 L 96.09 16.48 L 71.28 41.57 L 71.28 41.57 Z M 15.72 10.94 L 50.52 46.31 C 51.27 47.08 52.42 47.53 53.66 47.53 C 53.67 47.53 53.67 47.53 53.68 47.53 C 54.91 47.53 56.08 47.09 56.81 46.35 L 91.82 10.94 L 15.72 10.94 L 15.72 10.94 Z" fill="#000000" stroke="none" pointer-events="all"/></g></svg>