<?xml version="1.0" encoding="UTF-8"?>
<!DOCTYPE svg PUBLIC "-//W3C//DTD SVG 1.1//EN" "http://www.w3.org/Graphics/SVG/1.1/DTD/svg11.dtd">
<svg xmlns="http://www.w3.org/2000/svg" xmlns:xlink="http://www.w3.org/1999/xlink" version="1.1" width="74px" height="78px" viewBox="-0.5 -0.5 74 78"><defs><style type="text/css">@import url(https://fonts.googleapis.com/css?family=Architects+Daughter);&#xa;</style></defs><g><path d="M 37.83 45.62 L 37.83 33.1 L 68.18 33.1 C 68.91 36.38 69.2 41.19 68.28 46.68 C 66.93 53.88 63.53 60.34 57.89 64.76 L 47.41 56.65 C 52.74 53.82 54.8 49.4 55.46 45.62 Z" fill="#3a7cec" stroke="none" pointer-events="all"/><path d="M 48.98 55.7 L 59.22 63.64 C 53.08 69.69 41.2 73.4 30.27 70.59 C 20.23 68.27 11.75 60.68 8.09 51.91 L 19.06 44.13 C 21.19 51.42 26.57 56.84 33.73 58.37 C 39.63 59.65 44.92 58.4 48.98 55.7 Z" fill="#2ba14b" stroke="none" pointer-events="all"/><path d="M 8.88 53.63 C 4.23 44.55 4 32.78 9.86 22.78 L 20.19 31.04 C 18.3 35.2 17.79 40.59 19.48 45.44 Z" fill="#f1b500" stroke="none" pointer-events="all"/><path d="M 8.89 24.54 C 13.13 16.79 19.32 11.26 27.84 8.33 C 41.83 4 53.67 9.47 59.39 15.18 L 50.37 24.26 C 46.92 20.82 40.13 17.81 32.26 20.2 C 26.57 21.97 21.64 26.31 19.5 32.8 Z" fill="#e33e2b" stroke="none" pointer-events="all"/></g></svg>