<?xml version="1.0" encoding="UTF-8"?>
<!DOCTYPE svg PUBLIC "-//W3C//DTD SVG 1.1//EN" "http://www.w3.org/Graphics/SVG/1.1/DTD/svg11.dtd">
<svg xmlns="http://www.w3.org/2000/svg" xmlns:xlink="http://www.w3.org/1999/xlink" version="1.1" width="40px" height="39px" viewBox="-0.5 -0.5 40 39"><defs><style type="text/css">@import url(https://fonts.googleapis.com/css?family=Architects+Daughter);&#xa;</style></defs><g><rect x="0" y="0" width="39" height="38" fill="none" stroke="none" pointer-events="all"/><path d="M 3.28 38 L 3.28 19.75 L 1.71 19.75 C 0.51 19.7 0 18.46 0.7 17.61 L 18.08 0.92 C 19.23 0 19.71 0.09 20.73 0.82 L 28.7 8.34 L 28.7 3.76 C 28.7 3.25 29.14 2.64 29.86 2.64 L 33.36 2.64 C 33.94 2.64 34.48 3.1 34.48 3.79 L 34.48 14.05 L 38.19 17.6 C 39 18.53 38.29 19.75 37.17 19.75 L 35.64 19.75 L 35.64 38 L 23.5 38 L 23.5 24.31 L 15.41 24.31 L 15.41 38 Z" fill="#000000" stroke="none" pointer-events="all"/></g></svg>