<?xml version="1.0" encoding="UTF-8"?>
<!DOCTYPE svg PUBLIC "-//W3C//DTD SVG 1.1//EN" "http://www.w3.org/Graphics/SVG/1.1/DTD/svg11.dtd">
<svg xmlns="http://www.w3.org/2000/svg" xmlns:xlink="http://www.w3.org/1999/xlink" version="1.1" width="46px" height="61px" viewBox="-0.5 -0.5 46 61"><defs><style type="text/css">@import url(https://fonts.googleapis.com/css?family=Architects+Daughter);&#xa;</style></defs><g><rect x="0" y="0" width="45" height="60" fill="none" stroke="none" pointer-events="all"/><path d="M 13.13 0.33 C 13.13 0.33 0 0.5 0.17 12.03 C 0.34 23.56 2.73 33.76 6.65 39.44 C 10.57 45.12 20.63 60 32.05 58.5 C 32.05 58.5 37.68 57.33 41.94 54.65 L 28.13 44.12 C 28.13 44.12 24.04 46.63 21.48 43.28 C 18.92 39.94 10.91 24.4 10.91 24.4 C 10.91 24.4 8.69 19.39 13.64 17.21 L 13.13 0.33 Z M 14.67 0.33 C 14.67 0.33 15.69 0 17.57 1 C 19.44 2.01 19.44 2.84 19.44 2.84 L 19.61 14.37 C 19.61 14.37 19.1 15.04 18.42 15.71 C 17.74 16.38 15.52 17.38 15.18 16.71 C 14.84 16.05 14.67 0.33 14.67 0.33 Z M 29.28 42.89 L 33.07 40.95 C 33.07 40.95 33.93 40.78 35.29 41.62 C 36.65 42.46 43.81 47.98 43.81 47.98 C 43.81 47.98 45 48.98 44.66 50.15 C 44.32 51.32 43.47 53.82 43.47 53.82 L 29.28 42.89 Z" fill="#000000" stroke="none" pointer-events="all"/></g></svg>