<?xml version="1.0" encoding="UTF-8"?>
<!DOCTYPE svg PUBLIC "-//W3C//DTD SVG 1.1//EN" "http://www.w3.org/Graphics/SVG/1.1/DTD/svg11.dtd">
<svg xmlns="http://www.w3.org/2000/svg" xmlns:xlink="http://www.w3.org/1999/xlink" version="1.1" width="52px" height="52px" viewBox="-0.5 -0.5 52 52"><defs><style type="text/css">@import url(https://fonts.googleapis.com/css?family=Architects+Daughter);&#xa;</style></defs><g><rect x="1" y="1" width="49" height="49" fill="none" stroke="none" pointer-events="all"/><path d="M 33.21 31.78 C 39.11 31.78 46.91 26.69 46.91 18.08 C 46.91 9.27 39.62 3.94 33.21 3.94 C 24.69 3.94 19.02 10.45 19.02 18.08 C 19.02 26.28 26.22 31.78 33.21 31.78 Z M 8.18 48.26 C 6.26 50 3.73 49.88 2.35 48.41 C 1 46.8 1.09 44.55 2.59 42.83 L 14.3 31.11 C 15.31 30.26 16.8 29.7 17.96 29.95 L 19.63 28.29 C 17.72 25.67 16.16 22.67 16.04 18.08 C 16.04 9.58 22.6 1 33.21 1 C 42.51 1 50 8.68 50 18.08 C 50 27.4 42.11 34.79 33.21 34.79 C 29.44 34.72 25.88 33.73 22.65 31.24 L 20.98 32.92 C 21.1 34.22 20.77 35.37 19.94 36.36 Z" fill="#000000" stroke="rgb(0, 0, 0)" stroke-width="3" stroke-miterlimit="10" pointer-events="all"/></g></svg>