<?xml version="1.0" encoding="UTF-8"?>
<!DOCTYPE svg PUBLIC "-//W3C//DTD SVG 1.1//EN" "http://www.w3.org/Graphics/SVG/1.1/DTD/svg11.dtd">
<svg xmlns="http://www.w3.org/2000/svg" xmlns:xlink="http://www.w3.org/1999/xlink" version="1.1" width="100px" height="100px" viewBox="-0.5 -0.5 100 100"><defs/><g><rect x="0" y="0" width="99" height="99" fill="none" stroke="none" pointer-events="all"/><path d="M 49.48 99 L 49.48 99 C 36.26 98.99 23.84 93.84 14.5 84.49 C 5.14 75.13 0 62.7 0.01 49.47 C 0 36.26 5.14 23.84 14.48 14.49 C 23.82 5.15 36.23 0 49.45 0 L 49.51 0 C 62.73 0 75.15 5.15 84.49 14.49 C 93.84 23.84 98.99 36.26 99 49.48 C 98.99 62.71 93.84 75.14 84.49 84.49 C 75.13 93.84 62.71 98.99 49.48 99 L 49.48 99 Z M 49.45 11.39 C 39.28 11.39 29.72 15.35 22.54 22.54 C 15.35 29.74 11.39 39.3 11.4 49.47 C 11.39 59.66 15.35 69.24 22.55 76.44 C 29.73 83.64 39.3 87.6 49.48 87.61 C 70.5 87.6 87.6 70.5 87.62 49.47 C 87.61 28.46 70.52 11.38 49.51 11.38 L 49.45 11.38 L 49.45 11.39 Z M 53.78 44.2 L 53.78 33.11 C 56.94 33.34 59.41 36.47 59.7 39.68 L 70.2 39.68 C 70.21 28.9 60.42 23.24 53.67 22.82 L 53.67 15.55 L 43.66 15.55 L 43.66 22.82 C 40.71 22.84 27.43 26.6 27.45 38.65 C 27.43 49.38 37.01 52.3 43.66 53.24 L 43.66 65.35 C 38.81 63.99 37.93 60.25 37.25 57.16 L 26.59 57.16 C 27.27 69.22 37.87 74.83 43.66 75.69 L 43.66 83.12 L 53.78 83.12 L 53.78 75.8 C 61.79 75.37 71.27 68.46 71.28 59 C 71.27 48.13 61.83 45.04 53.78 44.2 Z M 43.71 42.42 C 36.58 42.31 36.44 34.5 43.71 33.22 L 43.71 42.42 Z M 53.89 65.41 L 53.89 54.97 C 62.73 55.21 63.71 64.02 53.89 65.41 Z" fill="#000000" stroke="none" pointer-events="all"/></g></svg>