<?xml version="1.0" encoding="UTF-8"?>
<!DOCTYPE svg PUBLIC "-//W3C//DTD SVG 1.1//EN" "http://www.w3.org/Graphics/SVG/1.1/DTD/svg11.dtd">
<svg xmlns="http://www.w3.org/2000/svg" xmlns:xlink="http://www.w3.org/1999/xlink" version="1.1" width="51px" height="51px" viewBox="-0.5 -0.5 51 51"><defs/><g><rect x="1" y="1" width="48" height="48" fill="none" stroke="none" pointer-events="all"/><path d="M 6.98 21.72 L 2.03 19.67 C 1.3 19.26 1 18.69 1.28 17.87 L 3.17 13.35 C 3.58 12.66 4.13 12.27 4.97 12.61 L 9.6 14.95 C 11.08 13.2 12.7 11.46 14.5 9.95 L 12.47 4.97 C 12.32 4.38 12.26 3.8 13.11 3.24 L 17.76 1.28 C 18.66 1 19.16 1.38 19.46 1.91 L 21.54 7 C 23.63 6.58 25.7 6.39 28.15 7.11 L 30.24 1.94 C 30.69 1.22 31.28 1.02 31.98 1.28 L 36.62 3.24 C 37.38 3.73 37.45 4.3 37.27 4.91 L 35.21 10.01 C 37.02 11.46 38.69 13.01 40.04 14.76 L 45.02 12.72 C 45.91 12.47 46.45 12.81 46.78 13.48 L 48.73 18.11 C 48.86 18.79 48.71 19.36 48.04 19.75 L 42.97 21.8 C 43.21 23.78 43.18 26.27 42.96 28.46 L 48.03 30.51 C 48.71 30.94 49 31.49 48.79 32.21 L 46.96 36.54 C 46.6 37.11 46.1 37.4 45.36 37.21 L 40.25 35.14 C 38.9 36.98 37.22 38.62 35.33 40.03 L 37.35 45.03 C 37.67 45.82 37.26 46.49 36.79 46.75 L 31.87 48.8 C 31.22 48.91 30.63 48.86 30.34 48.03 L 28.27 42.92 C 26.4 43.46 24.07 43.59 21.68 42.97 L 19.63 48.01 C 19.3 48.54 18.93 49 18.03 48.78 L 13.23 46.79 C 12.56 46.3 12.25 45.71 12.68 44.89 L 14.95 40.36 C 12.94 38.84 11.26 37.22 9.94 35.51 L 5.06 37.51 C 4.29 37.79 3.66 37.6 3.22 36.89 L 1.27 32.22 C 1.06 31.6 1.22 30.87 1.94 30.51 L 7 28.32 C 6.8 26.12 6.78 23.92 6.98 21.72 Z M 12.44 24.91 C 12.44 32.7 18.85 37.53 25.1 37.53 C 31.9 37.53 37.52 31.75 37.52 25.03 C 37.52 17.83 31.47 12.42 25.14 12.42 C 18.94 12.42 12.44 17.1 12.44 24.91 Z" fill="#000000" stroke="rgb(0, 0, 0)" stroke-width="3" stroke-miterlimit="10" pointer-events="all"/></g></svg>